<svg xmlns="http://www.w3.org/2000/svg" xmlns:xlink="http://www.w3.org/1999/xlink" width="500" zoomAndPan="magnify" viewBox="0 0 375 374.999991" height="500" preserveAspectRatio="xMidYMid meet" version="1.0"><defs><clipPath id="3870c523ee"><path d="M 26.25 252 L 81 252 L 81 300 L 26.25 300 Z M 26.25 252 " clip-rule="nonzero"/></clipPath><clipPath id="0fa4b42e2b"><path d="M 301 172 L 348.75 172 L 348.75 220 L 301 220 Z M 301 172 " clip-rule="nonzero"/></clipPath></defs><path fill="#e86b57" d="M 239.792969 321.351562 C 239.101562 320.621094 238.128906 320.226562 237.109375 320.253906 L 212.121094 321.027344 C 211.136719 321.0625 210.207031 321.5 209.558594 322.25 C 208.90625 322.996094 208.597656 323.96875 208.699219 324.957031 L 213.015625 365.617188 C 213.210938 367.429688 214.738281 368.792969 216.546875 368.792969 L 216.660156 368.785156 L 234.058594 368.246094 C 235.871094 368.191406 237.351562 366.789062 237.492188 364.980469 L 240.757812 324.089844 C 240.839844 323.074219 240.488281 322.089844 239.792969 321.351562 " fill-opacity="1" fill-rule="nonzero"/><path fill="#e86b57" d="M 115.503906 298.726562 C 114.8125 298.011719 113.863281 297.617188 112.847656 297.65625 L 87.863281 298.433594 C 86.890625 298.46875 85.964844 298.894531 85.316406 299.628906 C 84.664062 300.359375 84.34375 301.328125 84.4375 302.296875 L 89.125 354.898438 C 89.28125 356.734375 90.828125 358.136719 92.65625 358.136719 L 92.773438 358.128906 L 110.175781 357.597656 C 112.015625 357.539062 113.503906 356.078125 113.613281 354.238281 L 116.503906 301.398438 C 116.5625 300.40625 116.199219 299.433594 115.503906 298.726562 " fill-opacity="1" fill-rule="nonzero"/><path fill="#f4a18f" d="M 282.148438 304.464844 C 281.457031 303.734375 280.503906 303.3125 279.460938 303.359375 L 240.53125 304.578125 C 239.550781 304.605469 238.609375 305.046875 237.96875 305.792969 C 237.320312 306.539062 237.007812 307.519531 237.109375 308.503906 L 243.832031 371.847656 C 244.03125 373.660156 245.554688 375.023438 247.367188 375.023438 L 247.484375 375.023438 L 274.59375 374.1875 C 276.398438 374.128906 277.878906 372.71875 278.019531 370.910156 L 283.117188 307.199219 C 283.195312 306.191406 282.84375 305.195312 282.148438 304.464844 " fill-opacity="1" fill-rule="nonzero"/><path fill="#f4a18f" d="M 156.054688 302.390625 C 155.363281 301.660156 154.402344 301.234375 153.367188 301.292969 L 114.441406 302.5 C 113.449219 302.539062 112.515625 302.96875 111.871094 303.714844 C 111.21875 304.464844 110.910156 305.445312 111.015625 306.425781 L 117.742188 369.777344 C 117.933594 371.589844 119.464844 372.949219 121.265625 372.949219 L 121.378906 372.949219 L 148.492188 372.109375 C 150.308594 372.046875 151.78125 370.648438 151.925781 368.835938 L 157.019531 305.125 C 157.097656 304.117188 156.753906 303.121094 156.054688 302.390625 " fill-opacity="1" fill-rule="nonzero"/><path fill="#f4a18f" d="M 176.171875 149.3125 C 120.742188 154.488281 74.835938 181.761719 54.113281 217.320312 C 50.597656 222.886719 50.730469 221.941406 47.679688 230.644531 C 43.289062 242.082031 41.417969 254.128906 42.566406 266.417969 C 47.914062 323.691406 116.398438 364.140625 195.535156 356.753906 C 274.675781 349.367188 319.578125 310.964844 319.578125 249.242188 C 319.578125 189.179688 255.308594 141.925781 176.171875 149.3125 " fill-opacity="1" fill-rule="nonzero"/><path fill="#e86b57" d="M 84.398438 274.9375 C 84.027344 264.835938 73.671875 255.734375 57.808594 253.167969 L 60.289062 253.628906 C 71.6875 256.113281 80.316406 264.828125 80.726562 275.433594 C 81.1875 287.210938 71.359375 297.140625 58.207031 298.96875 C 58.160156 299.097656 56.371094 299.097656 56.316406 299.222656 C 78.492188 296.589844 84.839844 286.855469 84.398438 274.9375 " fill-opacity="1" fill-rule="nonzero"/><g clip-path="url(#3870c523ee)"><path fill="#f6af98" d="M 80.726562 275.433594 C 81.226562 288.25 69.558594 298.9375 54.660156 299.304688 C 39.773438 299.679688 27.296875 289.589844 26.789062 276.769531 C 26.296875 263.957031 37.964844 253.277344 52.851562 252.898438 C 67.75 252.539062 80.226562 262.617188 80.726562 275.433594 " fill-opacity="1" fill-rule="nonzero"/></g><path fill="#f4a18f" d="M 89.355469 147.15625 C 107.425781 147.15625 122.03125 167.332031 122.03125 167.332031 C 122.03125 167.609375 109.078125 164 79.6875 189.179688 C 81.441406 187.671875 81.996094 185.128906 82.871094 182.910156 C 87.398438 171.101562 73.007812 152.328125 75.152344 150.332031 C 77.304688 148.335938 85.652344 147.15625 89.355469 147.15625 " fill-opacity="1" fill-rule="evenodd"/><path fill="#e86b57" d="M 140.65625 175.273438 C 158.441406 172.0625 176.398438 189.320312 176.398438 189.320312 C 155.871094 191.976562 140.636719 211.613281 140.636719 211.613281 C 142.988281 199.199219 125.488281 183.28125 127.246094 180.929688 C 129.011719 178.585938 137.015625 175.9375 140.65625 175.273438 " fill-opacity="1" fill-rule="evenodd"/><path fill="#351f17" d="M 100.941406 230.535156 C 103.335938 230.535156 105.25 235.894531 105.25 242.464844 C 105.25 249.046875 103.335938 254.402344 100.941406 254.402344 C 98.546875 254.402344 96.585938 249.046875 96.585938 242.464844 C 96.585938 235.894531 98.546875 230.535156 100.941406 230.535156 " fill-opacity="1" fill-rule="evenodd"/><path fill="#351f17" d="M 67.941406 221.339844 C 70.335938 221.339844 72.253906 226.691406 72.253906 233.261719 C 72.253906 239.84375 70.335938 245.199219 67.941406 245.199219 C 65.550781 245.199219 63.589844 239.84375 63.589844 233.261719 C 63.589844 226.691406 65.550781 221.339844 67.941406 221.339844 " fill-opacity="1" fill-rule="evenodd"/><path fill="#e86b57" d="M 39.714844 275.972656 C 39.753906 273.648438 41.683594 271.800781 44.027344 271.839844 C 46.371094 271.871094 48.242188 273.785156 48.203125 276.109375 C 48.171875 278.425781 46.238281 280.269531 43.890625 280.234375 C 41.550781 280.203125 39.679688 278.289062 39.714844 275.972656 " fill-opacity="1" fill-rule="nonzero"/><path fill="#e86b57" d="M 56.558594 276.242188 C 56.59375 273.921875 58.523438 272.070312 60.867188 272.113281 C 63.210938 272.148438 65.082031 274.054688 65.042969 276.378906 C 65.011719 278.695312 63.074219 280.539062 60.734375 280.503906 C 58.386719 280.464844 56.523438 278.558594 56.558594 276.242188 " fill-opacity="1" fill-rule="nonzero"/><g clip-path="url(#0fa4b42e2b)"><path fill="#f4a18f" d="M 323.113281 198.492188 L 322.8125 198.519531 L 322.269531 198.570312 L 322.136719 198.589844 L 322.09375 198.597656 L 321.800781 198.585938 C 321.269531 198.5625 320.738281 198.539062 320.210938 198.523438 L 319.089844 198.339844 C 315.882812 197.78125 312.535156 195.875 310.761719 192.976562 C 309.890625 191.566406 309.363281 189.957031 309.464844 188.550781 C 309.519531 188.21875 309.503906 187.863281 309.632812 187.554688 L 309.683594 187.3125 L 309.71875 187.171875 L 310.046875 186.375 L 310.390625 185.519531 C 310.503906 185.222656 310.621094 184.929688 310.730469 184.789062 C 310.941406 184.441406 311.144531 184.085938 311.335938 183.722656 C 313.414062 180.550781 315.847656 179.847656 318.960938 181.207031 C 320.480469 181.902344 321.925781 183.1875 323.054688 184.707031 L 323.457031 185.296875 L 323.640625 185.566406 L 323.71875 185.710938 L 324.570312 187.359375 C 324.640625 187.703125 324.742188 188.03125 324.863281 188.355469 C 324.976562 188.707031 325.015625 189.191406 325.109375 189.59375 C 325.496094 192.417969 324.636719 195.5625 323.113281 198.492188 M 347.859375 184.179688 C 347.65625 183.570312 347.476562 183.179688 347.351562 182.882812 C 347.226562 182.59375 347.164062 182.441406 347.164062 182.441406 L 347.152344 182.421875 C 346.78125 181.550781 345.917969 180.933594 344.910156 180.917969 C 343.535156 180.898438 342.402344 181.992188 342.382812 183.371094 C 342.382812 183.371094 342.371094 184 342.351562 185.1875 C 342.191406 185.605469 342.210938 185.953125 341.980469 186.566406 C 341.855469 187.164062 341.539062 187.785156 341.242188 188.46875 C 340.535156 189.773438 339.230469 191.285156 337.355469 192.546875 C 336.726562 192.933594 335.996094 193.46875 335.425781 193.757812 C 334.808594 194.085938 334.246094 194.445312 333.492188 194.792969 L 333.246094 194.914062 C 333.628906 192.855469 333.761719 190.679688 333.472656 188.457031 C 333.308594 187.664062 333.230469 186.894531 332.980469 186.0625 C 332.714844 185.210938 332.40625 184.355469 332.085938 183.515625 L 331.210938 181.839844 L 331.109375 181.628906 L 331.054688 181.527344 L 330.875 181.199219 L 330.835938 181.132812 L 330.503906 180.652344 L 329.839844 179.699219 C 327.992188 177.207031 325.597656 175 322.550781 173.558594 C 319.539062 172.125 315.644531 171.601562 312.085938 172.8125 C 308.492188 174 305.964844 176.695312 304.3125 179.308594 C 303.90625 180.03125 303.519531 180.761719 303.148438 181.492188 C 302.933594 181.890625 302.832031 182.167969 302.722656 182.449219 L 302.058594 184.160156 L 302.011719 184.269531 L 301.910156 184.550781 L 301.890625 184.628906 L 301.800781 184.957031 L 301.644531 185.605469 C 301.386719 186.46875 301.335938 187.335938 301.273438 188.199219 C 301.21875 189.488281 301.351562 190.726562 301.617188 191.910156 C 301.925781 192.820312 302.601562 195.582031 304.167969 197.859375 C 305.628906 199.992188 307.589844 201.390625 308.125 201.851562 C 310.875 204.042969 314.078125 205.460938 317.308594 206.074219 C 316.890625 206.453125 316.480469 206.875 316.066406 207.21875 L 315.980469 207.292969 L 315.714844 207.472656 L 315.039062 207.933594 L 308.683594 210.695312 C 308.464844 210.835938 308.230469 211.023438 308.027344 211.132812 L 307.507812 211.332031 L 306.617188 211.726562 C 308.027344 214.140625 309.050781 216.785156 309.695312 219.539062 L 309.863281 219.460938 C 310.484375 219.179688 316.113281 217.042969 316.738281 216.75 L 317.6875 216.292969 C 317.945312 216.148438 318.148438 216 318.378906 215.847656 L 319.734375 214.941406 L 320.417969 214.476562 L 320.757812 214.238281 L 320.847656 214.1875 L 321.171875 213.949219 L 321.21875 213.910156 L 321.40625 213.75 C 322.417969 212.917969 323.347656 212.054688 324.226562 211.132812 C 325.992188 209.308594 327.597656 207.304688 329.039062 205.082031 C 329.996094 204.78125 330.902344 204.441406 331.773438 204.085938 C 333.671875 203.335938 335.40625 202.507812 337.050781 201.644531 C 337.859375 201.253906 338.71875 200.730469 339.515625 200.261719 C 340.390625 199.777344 340.929688 199.359375 341.59375 198.925781 C 344.773438 196.695312 346.859375 193.78125 347.679688 190.945312 C 348.542969 188.148438 348.203125 185.824219 347.859375 184.179688 " fill-opacity="1" fill-rule="nonzero"/></g><path fill="#efefef" d="M 319.578125 249.242188 C 319.578125 249.214844 319.578125 249.195312 319.578125 249.167969 C 319.578125 249.195312 319.578125 249.214844 319.578125 249.242188 M 319.578125 249.148438 C 319.578125 249.125 319.578125 249.105469 319.578125 249.078125 C 319.578125 249.101562 319.578125 249.125 319.578125 249.148438 M 319.578125 249.070312 C 319.578125 249.050781 319.578125 249.023438 319.578125 249.007812 C 319.578125 249.027344 319.578125 249.050781 319.578125 249.070312 M 319.578125 248.988281 C 319.578125 248.964844 319.578125 248.9375 319.578125 248.917969 C 319.578125 248.9375 319.578125 248.964844 319.578125 248.988281 M 319.578125 248.898438 C 319.578125 248.886719 319.578125 248.859375 319.578125 248.839844 C 319.578125 248.859375 319.578125 248.878906 319.578125 248.898438 M 319.578125 248.828125 C 319.578125 248.800781 319.578125 248.777344 319.578125 248.757812 C 319.578125 248.78125 319.578125 248.800781 319.578125 248.828125 M 319.578125 248.738281 C 319.578125 248.71875 319.578125 248.699219 319.578125 248.683594 C 319.578125 248.699219 319.578125 248.71875 319.578125 248.738281 M 319.578125 248.660156 C 319.578125 248.640625 319.578125 248.621094 319.578125 248.597656 C 319.578125 248.621094 319.578125 248.640625 319.578125 248.660156 M 319.578125 248.566406 C 319.578125 248.550781 319.574219 248.539062 319.574219 248.523438 C 319.574219 248.539062 319.578125 248.550781 319.578125 248.566406 M 319.574219 248.496094 C 319.574219 248.476562 319.574219 248.453125 319.574219 248.433594 C 319.574219 248.453125 319.574219 248.476562 319.574219 248.496094 M 319.574219 248.40625 C 319.574219 248.390625 319.574219 248.375 319.574219 248.359375 C 319.574219 248.375 319.574219 248.390625 319.574219 248.40625 M 319.574219 248.320312 C 319.574219 248.308594 319.574219 248.292969 319.574219 248.277344 C 319.574219 248.292969 319.574219 248.308594 319.574219 248.320312 M 319.574219 248.238281 C 319.574219 248.226562 319.574219 248.214844 319.574219 248.203125 C 319.574219 248.21875 319.574219 248.226562 319.574219 248.238281 M 319.574219 248.144531 C 319.574219 248.140625 319.574219 248.125 319.574219 248.117188 C 319.574219 248.125 319.574219 248.136719 319.574219 248.144531 M 319.566406 248.078125 C 319.566406 248.066406 319.566406 248.0625 319.566406 248.058594 C 319.566406 248.0625 319.566406 248.066406 319.566406 248.078125 M 319.566406 247.972656 C 319.566406 247.96875 319.566406 247.96875 319.566406 247.957031 C 319.566406 247.964844 319.566406 247.96875 319.566406 247.972656 " fill-opacity="1" fill-rule="nonzero"/><path fill="#e59786" d="M 176.964844 357.621094 C 134.128906 357.621094 95.871094 343.605469 71.167969 320.917969 C 92.957031 331.710938 119.378906 337.902344 147.832031 337.902344 C 153.929688 337.902344 160.132812 337.617188 166.390625 337.03125 C 245.53125 329.648438 290.433594 291.246094 290.433594 229.519531 C 290.433594 204.195312 278.976562 181.171875 259.828125 163.539062 C 282.1875 174.476562 299.738281 190.746094 309.882812 210.175781 L 308.683594 210.695312 C 308.464844 210.835938 308.230469 211.023438 308.027344 211.132812 L 307.507812 211.332031 L 306.617188 211.726562 C 308.027344 214.140625 309.050781 216.785156 309.695312 219.539062 L 309.863281 219.460938 C 310.183594 219.3125 311.875 218.660156 313.503906 218.03125 C 317.296875 227.457031 319.40625 237.507812 319.566406 247.957031 C 319.566406 247.96875 319.566406 247.96875 319.566406 247.972656 C 319.566406 248.003906 319.566406 248.027344 319.566406 248.058594 C 319.566406 248.0625 319.566406 248.066406 319.566406 248.078125 C 319.574219 248.089844 319.574219 248.105469 319.574219 248.117188 C 319.574219 248.125 319.574219 248.140625 319.574219 248.144531 C 319.574219 248.164062 319.574219 248.183594 319.574219 248.203125 C 319.574219 248.214844 319.574219 248.226562 319.574219 248.238281 C 319.574219 248.253906 319.574219 248.261719 319.574219 248.277344 C 319.574219 248.292969 319.574219 248.308594 319.574219 248.320312 C 319.574219 248.335938 319.574219 248.351562 319.574219 248.359375 C 319.574219 248.375 319.574219 248.390625 319.574219 248.40625 C 319.574219 248.414062 319.574219 248.425781 319.574219 248.433594 C 319.574219 248.453125 319.574219 248.476562 319.574219 248.496094 C 319.574219 248.507812 319.574219 248.515625 319.574219 248.523438 C 319.574219 248.539062 319.578125 248.550781 319.578125 248.566406 C 319.578125 248.578125 319.578125 248.585938 319.578125 248.597656 C 319.578125 248.621094 319.578125 248.640625 319.578125 248.660156 C 319.578125 248.667969 319.578125 248.675781 319.578125 248.683594 C 319.578125 248.699219 319.578125 248.71875 319.578125 248.738281 C 319.578125 248.742188 319.578125 248.746094 319.578125 248.757812 C 319.578125 248.777344 319.578125 248.800781 319.578125 248.828125 C 319.578125 248.832031 319.578125 248.835938 319.578125 248.839844 C 319.578125 248.859375 319.578125 248.886719 319.578125 248.898438 C 319.578125 248.910156 319.578125 248.910156 319.578125 248.917969 C 319.578125 248.9375 319.578125 248.964844 319.578125 248.988281 C 319.578125 248.992188 319.578125 248.996094 319.578125 249.007812 C 319.578125 249.023438 319.578125 249.050781 319.578125 249.070312 C 319.578125 249.070312 319.578125 249.078125 319.578125 249.078125 C 319.578125 249.105469 319.578125 249.125 319.578125 249.148438 C 319.578125 249.15625 319.578125 249.160156 319.578125 249.167969 C 319.578125 249.195312 319.578125 249.214844 319.578125 249.242188 C 319.578125 282.808594 306.296875 309.480469 281.457031 328.015625 C 270.332031 336.308594 256.894531 342.976562 241.292969 347.90625 C 240.46875 348.164062 239.632812 348.417969 238.796875 348.667969 C 230.414062 351.183594 221.425781 353.203125 211.855469 354.71875 C 206.59375 355.550781 201.148438 356.230469 195.535156 356.753906 C 189.273438 357.335938 183.074219 357.621094 176.964844 357.621094 " fill-opacity="1" fill-rule="nonzero"/><path fill="#e59786" d="M 309.695312 219.539062 C 309.050781 216.785156 308.027344 214.140625 306.617188 211.726562 L 307.507812 211.332031 L 308.027344 211.132812 C 308.230469 211.023438 308.464844 210.835938 308.683594 210.695312 L 309.882812 210.175781 C 311.21875 212.738281 312.429688 215.363281 313.503906 218.03125 C 311.875 218.660156 310.183594 219.3125 309.863281 219.460938 L 309.695312 219.539062 " fill-opacity="1" fill-rule="nonzero"/><path fill="#e86b57" d="M 197.753906 153.761719 C 209.386719 153.761719 220.398438 155.410156 230.320312 158.363281 L 230.320312 167.304688 C 220.691406 163.753906 209.605469 161.746094 197.753906 161.746094 C 188.898438 161.746094 180.46875 162.871094 172.742188 164.925781 L 172.742188 156.429688 C 180.59375 154.703125 189.027344 153.761719 197.753906 153.761719 " fill-opacity="1" fill-rule="evenodd"/><path fill="#d5624f" d="M 197.753906 155.964844 C 209.386719 155.964844 220.398438 157.605469 230.320312 160.558594 L 230.320312 169.5 C 220.691406 165.949219 209.605469 163.945312 197.753906 163.945312 C 188.898438 163.945312 180.46875 165.070312 172.742188 167.121094 L 172.742188 158.625 C 180.59375 156.902344 189.027344 155.964844 197.753906 155.964844 " fill-opacity="1" fill-rule="evenodd"/><path fill="#f1a017" d="M 200.050781 161.679688 C 215.628906 161.679688 228.328125 148.980469 228.328125 133.402344 C 228.328125 117.832031 215.628906 105.125 200.050781 105.125 C 184.476562 105.125 171.773438 117.832031 171.773438 133.402344 C 171.773438 148.980469 184.476562 161.679688 200.050781 161.679688 " fill-opacity="1" fill-rule="evenodd"/><path fill="#fcce5c" d="M 200.050781 156.195312 C 212.601562 156.195312 222.84375 145.953125 222.84375 133.402344 C 222.84375 120.855469 212.601562 110.621094 200.050781 110.621094 C 187.503906 110.621094 177.269531 120.855469 177.269531 133.402344 C 177.269531 145.953125 187.503906 156.195312 200.050781 156.195312 " fill-opacity="1" fill-rule="evenodd"/><path fill="#f1a017" d="M 198.082031 144.867188 C 196.9375 144.585938 195.753906 144.105469 194.53125 143.417969 L 194.53125 144.789062 L 189.453125 144.789062 L 189.453125 136.355469 L 194.53125 136.355469 C 194.816406 137.574219 195.40625 138.535156 196.308594 139.222656 C 197.203125 139.914062 198.207031 140.253906 199.332031 140.253906 C 200.101562 140.253906 200.660156 140.109375 201.019531 139.816406 C 201.375 139.523438 201.550781 139.207031 201.550781 138.871094 C 201.550781 138.3125 201.253906 137.875 200.636719 137.566406 C 200.023438 137.257812 199.269531 136.972656 198.367188 136.726562 C 197.464844 136.476562 196.476562 136.203125 195.40625 135.902344 C 194.339844 135.601562 193.359375 135.167969 192.453125 134.59375 C 191.546875 134.027344 190.785156 133.269531 190.171875 132.34375 C 189.550781 131.410156 189.242188 130.1875 189.242188 128.664062 C 189.242188 127.546875 189.484375 126.558594 189.964844 125.707031 C 190.445312 124.859375 191.09375 124.132812 191.90625 123.554688 C 192.71875 122.964844 193.660156 122.515625 194.726562 122.195312 C 195.796875 121.878906 196.910156 121.714844 198.082031 121.714844 L 198.082031 118.441406 L 202.042969 118.441406 L 202.042969 122.203125 C 202.679688 122.386719 203.257812 122.59375 203.761719 122.820312 C 204.269531 123.050781 204.691406 123.261719 205.027344 123.472656 L 205.027344 122.0625 L 210.160156 122.0625 L 210.160156 130.304688 L 205.027344 130.304688 C 204.949219 129.769531 204.761719 129.28125 204.472656 128.835938 C 204.179688 128.386719 203.832031 127.996094 203.421875 127.675781 C 203.007812 127.359375 202.550781 127.109375 202.042969 126.917969 C 201.539062 126.730469 201.027344 126.632812 200.523438 126.632812 C 199.886719 126.632812 199.355469 126.757812 198.945312 127 C 198.527344 127.242188 198.328125 127.585938 198.328125 128.039062 C 198.328125 128.605469 198.636719 129.03125 199.261719 129.316406 C 199.890625 129.613281 200.667969 129.882812 201.582031 130.140625 C 202.503906 130.394531 203.507812 130.667969 204.601562 130.976562 C 205.691406 131.28125 206.695312 131.722656 207.613281 132.289062 C 208.527344 132.863281 209.304688 133.628906 209.929688 134.585938 C 210.554688 135.542969 210.867188 136.796875 210.867188 138.34375 C 210.867188 139.484375 210.625 140.484375 210.15625 141.320312 C 209.679688 142.160156 209.035156 142.855469 208.21875 143.417969 C 207.40625 143.976562 206.46875 144.394531 205.402344 144.675781 C 204.332031 144.953125 203.214844 145.121094 202.042969 145.167969 L 202.042969 148.371094 L 198.082031 148.371094 L 198.082031 144.867188 " fill-opacity="1" fill-rule="nonzero"/><path fill="#bdbcbd" d="M 228.328125 133.355469 C 228.328125 133.351562 228.328125 133.34375 228.328125 133.339844 C 228.328125 133.34375 228.328125 133.351562 228.328125 133.355469 M 228.328125 133.3125 C 228.328125 133.300781 228.328125 133.296875 228.328125 133.289062 C 228.328125 133.296875 228.328125 133.300781 228.328125 133.3125 M 228.328125 133.261719 C 228.328125 133.257812 228.328125 133.246094 228.328125 133.242188 C 228.328125 133.246094 228.328125 133.257812 228.328125 133.261719 M 228.328125 133.210938 C 228.328125 133.207031 228.328125 133.203125 228.328125 133.191406 C 228.328125 133.203125 228.328125 133.207031 228.328125 133.210938 M 228.328125 133.167969 C 228.328125 133.160156 228.328125 133.152344 228.328125 133.148438 C 228.328125 133.152344 228.328125 133.160156 228.328125 133.167969 M 228.328125 133.121094 C 228.328125 133.113281 228.328125 133.105469 228.328125 133.101562 C 228.328125 133.105469 228.328125 133.113281 228.328125 133.121094 M 228.328125 133.070312 C 228.328125 133.066406 228.328125 133.0625 228.328125 133.054688 C 228.328125 133.0625 228.328125 133.066406 228.328125 133.070312 M 228.328125 133.027344 C 228.328125 133.019531 228.328125 133.011719 228.328125 133.007812 C 228.328125 133.011719 228.328125 133.015625 228.328125 133.027344 M 228.328125 132.976562 C 228.328125 132.972656 228.328125 132.96875 228.328125 132.957031 C 228.328125 132.96875 228.328125 132.972656 228.328125 132.976562 M 228.328125 132.929688 C 228.328125 132.921875 228.328125 132.917969 228.324219 132.914062 C 228.328125 132.917969 228.328125 132.921875 228.328125 132.929688 M 228.324219 132.878906 C 228.324219 132.875 228.324219 132.871094 228.324219 132.863281 C 228.324219 132.871094 228.324219 132.875 228.324219 132.878906 M 228.324219 132.832031 C 228.324219 132.824219 228.324219 132.820312 228.324219 132.820312 C 228.324219 132.824219 228.324219 132.824219 228.324219 132.832031 M 228.324219 132.78125 C 228.324219 132.777344 228.324219 132.777344 228.324219 132.769531 C 228.324219 132.777344 228.324219 132.777344 228.324219 132.78125 M 228.324219 132.726562 C 228.324219 132.726562 228.324219 132.726562 228.324219 132.722656 C 228.324219 132.726562 228.324219 132.726562 228.324219 132.726562 M 228.316406 132.4375 C 228.316406 132.4375 228.316406 132.4375 228.316406 132.433594 C 228.316406 132.4375 228.316406 132.4375 228.316406 132.4375 M 228.304688 132.246094 L 228.304688 132.242188 L 228.304688 132.246094 " fill-opacity="1" fill-rule="nonzero"/><path fill="#9f4839" d="M 200.007812 161.679688 C 200.003906 161.679688 200 161.679688 199.988281 161.679688 C 200 161.679688 200.003906 161.679688 200.007812 161.679688 M 199.964844 161.679688 C 199.960938 161.679688 199.953125 161.679688 199.949219 161.679688 C 199.953125 161.679688 199.960938 161.679688 199.964844 161.679688 M 199.914062 161.679688 C 199.910156 161.679688 199.90625 161.679688 199.898438 161.679688 C 199.90625 161.679688 199.910156 161.679688 199.914062 161.679688 M 199.871094 161.679688 C 199.867188 161.679688 199.859375 161.679688 199.855469 161.679688 C 199.859375 161.679688 199.867188 161.679688 199.871094 161.679688 M 199.828125 161.679688 C 199.820312 161.679688 199.816406 161.679688 199.8125 161.679688 C 199.816406 161.679688 199.820312 161.679688 199.828125 161.679688 M 199.777344 161.679688 C 199.773438 161.679688 199.773438 161.679688 199.769531 161.679688 C 199.773438 161.679688 199.773438 161.679688 199.777344 161.679688 M 199.734375 161.679688 C 199.730469 161.679688 199.722656 161.679688 199.71875 161.679688 C 199.722656 161.679688 199.730469 161.679688 199.734375 161.679688 M 199.683594 161.675781 C 199.683594 161.675781 199.679688 161.675781 199.675781 161.675781 C 199.679688 161.675781 199.683594 161.675781 199.683594 161.675781 M 199.640625 161.675781 C 199.636719 161.675781 199.636719 161.675781 199.628906 161.675781 C 199.628906 161.675781 199.636719 161.675781 199.640625 161.675781 M 199.597656 161.675781 C 199.589844 161.675781 199.585938 161.675781 199.582031 161.675781 C 199.585938 161.675781 199.589844 161.675781 199.597656 161.675781 M 199.546875 161.675781 C 199.546875 161.675781 199.542969 161.675781 199.539062 161.675781 C 199.542969 161.675781 199.546875 161.675781 199.546875 161.675781 M 199.503906 161.675781 C 199.5 161.675781 199.5 161.675781 199.492188 161.675781 C 199.5 161.675781 199.5 161.675781 199.503906 161.675781 M 199.460938 161.675781 C 199.453125 161.675781 199.449219 161.675781 199.449219 161.675781 C 199.449219 161.675781 199.453125 161.675781 199.460938 161.675781 M 199.410156 161.675781 C 199.410156 161.675781 199.410156 161.671875 199.40625 161.671875 C 199.410156 161.675781 199.410156 161.675781 199.410156 161.675781 M 199.367188 161.671875 C 199.367188 161.671875 199.367188 161.671875 199.359375 161.671875 L 199.367188 161.671875 " fill-opacity="1" fill-rule="nonzero"/><path fill="#b27510" d="M 200.050781 161.679688 C 200.039062 161.679688 200.023438 161.679688 200.007812 161.679688 C 200.003906 161.679688 200 161.679688 199.988281 161.679688 C 199.980469 161.679688 199.96875 161.679688 199.964844 161.679688 C 199.960938 161.679688 199.953125 161.679688 199.949219 161.679688 C 199.9375 161.679688 199.929688 161.679688 199.914062 161.679688 C 199.910156 161.679688 199.90625 161.679688 199.898438 161.679688 C 199.890625 161.679688 199.878906 161.679688 199.871094 161.679688 C 199.867188 161.679688 199.859375 161.679688 199.855469 161.679688 C 199.847656 161.679688 199.835938 161.679688 199.828125 161.679688 C 199.820312 161.679688 199.816406 161.679688 199.8125 161.679688 C 199.800781 161.679688 199.789062 161.679688 199.777344 161.679688 C 199.773438 161.679688 199.773438 161.679688 199.769531 161.679688 C 199.753906 161.679688 199.742188 161.679688 199.734375 161.679688 C 199.730469 161.679688 199.722656 161.679688 199.71875 161.679688 C 199.710938 161.679688 199.699219 161.679688 199.683594 161.675781 C 199.683594 161.675781 199.679688 161.675781 199.675781 161.675781 C 199.660156 161.675781 199.648438 161.675781 199.640625 161.675781 C 199.636719 161.675781 199.628906 161.675781 199.628906 161.675781 C 199.617188 161.675781 199.605469 161.675781 199.597656 161.675781 C 199.589844 161.675781 199.585938 161.675781 199.582031 161.675781 C 199.570312 161.675781 199.5625 161.675781 199.546875 161.675781 C 199.546875 161.675781 199.542969 161.675781 199.539062 161.675781 C 199.527344 161.675781 199.519531 161.675781 199.503906 161.675781 C 199.5 161.675781 199.5 161.675781 199.492188 161.675781 C 199.484375 161.675781 199.46875 161.675781 199.460938 161.675781 C 199.453125 161.675781 199.449219 161.675781 199.449219 161.675781 C 199.433594 161.675781 199.425781 161.675781 199.410156 161.675781 C 199.410156 161.675781 199.410156 161.675781 199.40625 161.671875 C 199.390625 161.671875 199.378906 161.671875 199.367188 161.671875 L 199.359375 161.671875 C 199.347656 161.671875 199.332031 161.671875 199.316406 161.671875 C 191.738281 161.476562 184.894531 158.269531 179.917969 153.21875 C 182.277344 152.894531 184.628906 152.511719 186.949219 152.027344 C 190.660156 154.652344 195.183594 156.195312 200.050781 156.195312 C 212.601562 156.195312 222.84375 145.953125 222.84375 133.402344 C 222.84375 128.210938 221.09375 123.421875 218.152344 119.582031 C 218.589844 117.226562 218.886719 114.851562 219.039062 112.480469 C 224.472656 117.417969 227.992188 124.433594 228.304688 132.242188 L 228.304688 132.246094 C 228.308594 132.277344 228.308594 132.304688 228.308594 132.339844 C 228.308594 132.355469 228.308594 132.375 228.308594 132.390625 C 228.316406 132.402344 228.316406 132.417969 228.316406 132.433594 C 228.316406 132.4375 228.316406 132.4375 228.316406 132.4375 C 228.316406 132.535156 228.320312 132.628906 228.324219 132.722656 C 228.324219 132.726562 228.324219 132.726562 228.324219 132.726562 C 228.324219 132.742188 228.324219 132.757812 228.324219 132.769531 C 228.324219 132.777344 228.324219 132.777344 228.324219 132.78125 C 228.324219 132.796875 228.324219 132.804688 228.324219 132.820312 C 228.324219 132.820312 228.324219 132.824219 228.324219 132.832031 C 228.324219 132.84375 228.324219 132.855469 228.324219 132.863281 C 228.324219 132.871094 228.324219 132.875 228.324219 132.878906 C 228.324219 132.894531 228.324219 132.902344 228.324219 132.914062 C 228.328125 132.917969 228.328125 132.921875 228.328125 132.929688 C 228.328125 132.9375 228.328125 132.949219 228.328125 132.957031 C 228.328125 132.96875 228.328125 132.972656 228.328125 132.976562 C 228.328125 132.988281 228.328125 132.996094 228.328125 133.007812 C 228.328125 133.011719 228.328125 133.019531 228.328125 133.027344 C 228.328125 133.035156 228.328125 133.046875 228.328125 133.054688 C 228.328125 133.0625 228.328125 133.066406 228.328125 133.070312 C 228.328125 133.082031 228.328125 133.089844 228.328125 133.101562 C 228.328125 133.105469 228.328125 133.113281 228.328125 133.121094 C 228.328125 133.128906 228.328125 133.140625 228.328125 133.148438 C 228.328125 133.152344 228.328125 133.160156 228.328125 133.167969 C 228.328125 133.171875 228.328125 133.183594 228.328125 133.191406 C 228.328125 133.203125 228.328125 133.207031 228.328125 133.210938 C 228.328125 133.222656 228.328125 133.230469 228.328125 133.242188 C 228.328125 133.246094 228.328125 133.257812 228.328125 133.261719 C 228.328125 133.269531 228.328125 133.28125 228.328125 133.289062 C 228.328125 133.296875 228.328125 133.300781 228.328125 133.3125 C 228.328125 133.320312 228.328125 133.332031 228.328125 133.339844 C 228.328125 133.34375 228.328125 133.351562 228.328125 133.355469 C 228.328125 133.371094 228.328125 133.390625 228.328125 133.402344 C 228.328125 148.980469 215.628906 161.679688 200.050781 161.679688 " fill-opacity="1" fill-rule="nonzero"/><path fill="#ba9744" d="M 200.050781 156.195312 C 195.183594 156.195312 190.660156 154.652344 186.949219 152.027344 C 190.949219 151.195312 194.847656 150.050781 198.476562 148.371094 L 202.042969 148.371094 L 202.042969 146.5 C 202.875 145.992188 203.691406 145.457031 204.488281 144.886719 C 204.796875 144.820312 205.101562 144.753906 205.402344 144.675781 C 206.46875 144.394531 207.40625 143.976562 208.21875 143.417969 C 209.035156 142.855469 209.679688 142.160156 210.15625 141.320312 C 210.5625 140.589844 210.792969 139.746094 210.851562 138.796875 C 215.039062 133.410156 216.828125 126.480469 218.09375 119.886719 C 218.113281 119.785156 218.132812 119.6875 218.152344 119.582031 C 221.09375 123.421875 222.84375 128.210938 222.84375 133.402344 C 222.84375 145.953125 212.601562 156.195312 200.050781 156.195312 " fill-opacity="1" fill-rule="nonzero"/><path fill="#b27510" d="M 202.042969 148.371094 L 198.476562 148.371094 C 199.699219 147.8125 200.886719 147.183594 202.042969 146.5 L 202.042969 148.371094 M 204.488281 144.886719 C 206.566406 143.378906 208.507812 141.609375 210.269531 139.515625 C 210.46875 139.28125 210.660156 139.042969 210.851562 138.796875 C 210.792969 139.746094 210.5625 140.589844 210.15625 141.320312 C 209.679688 142.160156 209.035156 142.855469 208.21875 143.417969 C 207.40625 143.976562 206.46875 144.394531 205.402344 144.675781 C 205.101562 144.753906 204.796875 144.820312 204.488281 144.886719 " fill-opacity="1" fill-rule="nonzero"/><path fill="#f1a017" d="M 165.460938 96.609375 C 181.03125 96.609375 193.738281 83.910156 193.738281 68.332031 C 193.738281 52.757812 181.03125 40.058594 165.460938 40.058594 C 149.886719 40.058594 137.183594 52.757812 137.183594 68.332031 C 137.183594 83.910156 149.886719 96.609375 165.460938 96.609375 " fill-opacity="1" fill-rule="evenodd"/><path fill="#fcce5c" d="M 165.460938 91.121094 C 178.011719 91.121094 188.242188 80.878906 188.242188 68.332031 C 188.242188 55.785156 178.011719 45.546875 165.460938 45.546875 C 152.910156 45.546875 142.675781 55.785156 142.675781 68.332031 C 142.675781 80.878906 152.910156 91.121094 165.460938 91.121094 " fill-opacity="1" fill-rule="evenodd"/><path fill="#f1a017" d="M 163.488281 79.789062 C 162.347656 79.519531 161.160156 79.035156 159.9375 78.347656 L 159.9375 79.710938 L 154.863281 79.710938 L 154.863281 71.28125 L 159.9375 71.28125 C 160.21875 72.511719 160.8125 73.460938 161.714844 74.148438 C 162.613281 74.839844 163.617188 75.183594 164.734375 75.183594 C 165.503906 75.183594 166.070312 75.035156 166.425781 74.746094 C 166.785156 74.453125 166.960938 74.136719 166.960938 73.800781 C 166.960938 73.242188 166.652344 72.804688 166.042969 72.492188 C 165.429688 72.183594 164.679688 71.898438 163.769531 71.652344 C 162.871094 71.40625 161.882812 71.132812 160.8125 70.835938 C 159.75 70.53125 158.757812 70.097656 157.855469 69.523438 C 156.953125 68.953125 156.195312 68.203125 155.574219 67.273438 C 154.960938 66.34375 154.652344 65.117188 154.652344 63.59375 C 154.652344 62.476562 154.890625 61.484375 155.367188 60.640625 C 155.851562 59.785156 156.5 59.0625 157.3125 58.480469 C 158.125 57.898438 159.066406 57.445312 160.132812 57.125 C 161.199219 56.808594 162.316406 56.648438 163.488281 56.648438 L 163.488281 53.367188 L 167.449219 53.367188 L 167.449219 57.136719 C 168.089844 57.316406 168.660156 57.519531 169.167969 57.75 C 169.675781 57.980469 170.09375 58.191406 170.441406 58.398438 L 170.441406 57 L 175.570312 57 L 175.570312 65.230469 L 170.441406 65.230469 C 170.359375 64.703125 170.175781 64.207031 169.882812 63.761719 C 169.582031 63.3125 169.234375 62.925781 168.824219 62.601562 C 168.417969 62.289062 167.960938 62.035156 167.449219 61.847656 C 166.945312 61.652344 166.4375 61.5625 165.925781 61.5625 C 165.292969 61.5625 164.765625 61.6875 164.347656 61.921875 C 163.929688 62.160156 163.726562 62.515625 163.726562 62.96875 C 163.726562 63.53125 164.035156 63.949219 164.667969 64.246094 C 165.304688 64.535156 166.074219 64.8125 166.992188 65.070312 C 167.90625 65.320312 168.917969 65.597656 170.003906 65.90625 C 171.097656 66.207031 172.101562 66.652344 173.019531 67.226562 C 173.9375 67.792969 174.710938 68.558594 175.335938 69.515625 C 175.957031 70.472656 176.265625 71.722656 176.265625 73.269531 C 176.265625 74.417969 176.035156 75.40625 175.558594 76.246094 C 175.085938 77.085938 174.433594 77.78125 173.625 78.347656 C 172.808594 78.902344 171.875 79.320312 170.808594 79.605469 C 169.734375 79.878906 168.617188 80.050781 167.449219 80.101562 L 167.449219 83.300781 L 163.488281 83.300781 L 163.488281 79.789062 " fill-opacity="1" fill-rule="nonzero"/><path fill="#bdbcbd" d="M 165.417969 96.609375 C 165.40625 96.609375 165.398438 96.609375 165.390625 96.609375 C 165.398438 96.609375 165.40625 96.609375 165.417969 96.609375 M 165.367188 96.609375 C 165.363281 96.609375 165.351562 96.609375 165.347656 96.609375 C 165.351562 96.609375 165.363281 96.609375 165.367188 96.609375 M 165.324219 96.609375 C 165.3125 96.609375 165.308594 96.609375 165.300781 96.609375 C 165.308594 96.609375 165.3125 96.609375 165.324219 96.609375 M 165.273438 96.609375 C 165.269531 96.609375 165.265625 96.609375 165.253906 96.609375 C 165.265625 96.609375 165.269531 96.609375 165.273438 96.609375 M 165.230469 96.609375 C 165.226562 96.609375 165.214844 96.609375 165.210938 96.609375 C 165.214844 96.609375 165.226562 96.609375 165.230469 96.609375 M 165.1875 96.609375 C 165.175781 96.609375 165.171875 96.609375 165.167969 96.609375 C 165.171875 96.609375 165.175781 96.609375 165.1875 96.609375 M 165.136719 96.605469 C 165.132812 96.605469 165.128906 96.605469 165.117188 96.605469 C 165.121094 96.605469 165.132812 96.605469 165.136719 96.605469 M 165.09375 96.605469 C 165.089844 96.605469 165.078125 96.605469 165.074219 96.605469 C 165.078125 96.605469 165.089844 96.605469 165.09375 96.605469 M 165.050781 96.605469 C 165.039062 96.605469 165.035156 96.605469 165.027344 96.605469 C 165.035156 96.605469 165.039062 96.605469 165.050781 96.605469 M 165 96.605469 C 164.996094 96.605469 164.988281 96.605469 164.984375 96.605469 C 164.988281 96.605469 164.996094 96.605469 165 96.605469 M 164.957031 96.605469 C 164.949219 96.605469 164.945312 96.605469 164.9375 96.605469 C 164.945312 96.605469 164.949219 96.605469 164.957031 96.605469 M 164.910156 96.605469 C 164.90625 96.605469 164.898438 96.605469 164.890625 96.605469 C 164.902344 96.605469 164.902344 96.605469 164.910156 96.605469 M 164.863281 96.605469 C 164.859375 96.605469 164.851562 96.605469 164.847656 96.605469 C 164.851562 96.605469 164.859375 96.605469 164.863281 96.605469 M 164.820312 96.601562 C 164.8125 96.601562 164.808594 96.601562 164.808594 96.601562 C 164.808594 96.601562 164.8125 96.601562 164.820312 96.601562 M 164.769531 96.601562 C 164.769531 96.601562 164.765625 96.601562 164.757812 96.601562 C 164.765625 96.601562 164.769531 96.601562 164.769531 96.601562 M 164.726562 96.601562 C 164.71875 96.601562 164.714844 96.601562 164.714844 96.601562 C 164.714844 96.601562 164.71875 96.601562 164.726562 96.601562 M 164.679688 96.601562 C 164.675781 96.601562 164.671875 96.601562 164.667969 96.601562 C 164.671875 96.601562 164.675781 96.601562 164.679688 96.601562 M 164.636719 96.597656 C 164.632812 96.597656 164.628906 96.597656 164.621094 96.597656 C 164.628906 96.597656 164.632812 96.597656 164.636719 96.597656 M 164.589844 96.597656 C 164.589844 96.597656 164.582031 96.597656 164.578125 96.597656 C 164.582031 96.597656 164.589844 96.597656 164.589844 96.597656 M 164.542969 96.597656 C 164.539062 96.597656 164.539062 96.597656 164.535156 96.597656 C 164.539062 96.597656 164.539062 96.597656 164.542969 96.597656 M 164.496094 96.589844 C 164.496094 96.589844 164.488281 96.589844 164.488281 96.589844 C 164.488281 96.589844 164.496094 96.589844 164.496094 96.589844 M 164.449219 96.589844 C 164.449219 96.589844 164.445312 96.589844 164.445312 96.589844 C 164.445312 96.589844 164.449219 96.589844 164.449219 96.589844 M 164.40625 96.589844 C 164.402344 96.589844 164.402344 96.589844 164.402344 96.589844 C 164.402344 96.589844 164.402344 96.589844 164.40625 96.589844 M 164.359375 96.585938 C 164.359375 96.585938 164.359375 96.585938 164.351562 96.585938 C 164.351562 96.585938 164.359375 96.585938 164.359375 96.585938 M 164.3125 96.585938 C 164.3125 96.585938 164.3125 96.585938 164.308594 96.585938 C 164.3125 96.585938 164.308594 96.585938 164.3125 96.585938 M 164.269531 96.585938 L 164.265625 96.585938 C 164.269531 96.585938 164.265625 96.585938 164.269531 96.585938 M 193.738281 68.289062 C 193.738281 68.285156 193.738281 68.273438 193.738281 68.269531 C 193.738281 68.273438 193.738281 68.285156 193.738281 68.289062 M 193.738281 68.242188 C 193.738281 68.234375 193.738281 68.226562 193.738281 68.222656 C 193.738281 68.226562 193.738281 68.234375 193.738281 68.242188 M 193.738281 68.191406 C 193.738281 68.1875 193.738281 68.183594 193.738281 68.171875 C 193.738281 68.183594 193.738281 68.1875 193.738281 68.191406 M 193.738281 68.148438 C 193.738281 68.136719 193.738281 68.132812 193.738281 68.125 C 193.738281 68.132812 193.738281 68.136719 193.738281 68.148438 M 193.738281 68.097656 C 193.738281 68.09375 193.738281 68.082031 193.738281 68.078125 C 193.738281 68.082031 193.738281 68.09375 193.738281 68.097656 M 193.738281 68.054688 C 193.738281 68.042969 193.738281 68.039062 193.738281 68.03125 C 193.738281 68.039062 193.738281 68.042969 193.738281 68.054688 M 193.738281 68.003906 C 193.738281 68 193.738281 67.992188 193.738281 67.984375 C 193.738281 67.992188 193.738281 68 193.738281 68.003906 M 193.738281 67.957031 C 193.738281 67.953125 193.738281 67.945312 193.738281 67.9375 C 193.738281 67.945312 193.738281 67.953125 193.738281 67.957031 M 193.734375 67.90625 C 193.734375 67.902344 193.734375 67.898438 193.734375 67.894531 C 193.734375 67.898438 193.734375 67.902344 193.734375 67.90625 M 193.734375 67.859375 C 193.734375 67.859375 193.734375 67.847656 193.734375 67.84375 C 193.734375 67.847656 193.734375 67.851562 193.734375 67.859375 M 193.734375 67.808594 C 193.734375 67.808594 193.734375 67.804688 193.734375 67.800781 C 193.734375 67.804688 193.734375 67.808594 193.734375 67.808594 M 193.734375 67.761719 C 193.734375 67.761719 193.734375 67.753906 193.734375 67.75 C 193.734375 67.753906 193.734375 67.761719 193.734375 67.761719 M 187.535156 50.695312 C 186.589844 49.519531 185.5625 48.421875 184.441406 47.40625 C 185.5625 48.414062 186.589844 49.519531 187.535156 50.695312 " fill-opacity="1" fill-rule="nonzero"/><path fill="#b27510" d="M 165.460938 96.609375 C 165.445312 96.609375 165.429688 96.609375 165.417969 96.609375 C 165.40625 96.609375 165.398438 96.609375 165.390625 96.609375 C 165.382812 96.609375 165.378906 96.609375 165.367188 96.609375 C 165.363281 96.609375 165.351562 96.609375 165.347656 96.609375 C 165.339844 96.609375 165.328125 96.609375 165.324219 96.609375 C 165.3125 96.609375 165.308594 96.609375 165.300781 96.609375 C 165.292969 96.609375 165.285156 96.609375 165.273438 96.609375 C 165.269531 96.609375 165.265625 96.609375 165.253906 96.609375 C 165.246094 96.609375 165.238281 96.609375 165.230469 96.609375 C 165.226562 96.609375 165.214844 96.609375 165.210938 96.609375 C 165.199219 96.609375 165.191406 96.609375 165.1875 96.609375 C 165.175781 96.609375 165.171875 96.609375 165.167969 96.609375 C 165.15625 96.605469 165.148438 96.605469 165.136719 96.605469 C 165.132812 96.605469 165.121094 96.605469 165.117188 96.605469 C 165.113281 96.605469 165.101562 96.605469 165.09375 96.605469 C 165.089844 96.605469 165.078125 96.605469 165.074219 96.605469 C 165.0625 96.605469 165.058594 96.605469 165.050781 96.605469 C 165.039062 96.605469 165.035156 96.605469 165.027344 96.605469 C 165.019531 96.605469 165.007812 96.605469 165 96.605469 C 164.996094 96.605469 164.988281 96.605469 164.984375 96.605469 C 164.976562 96.605469 164.964844 96.605469 164.957031 96.605469 C 164.949219 96.605469 164.945312 96.605469 164.9375 96.605469 C 164.925781 96.605469 164.921875 96.605469 164.910156 96.605469 C 164.902344 96.605469 164.902344 96.605469 164.890625 96.605469 C 164.882812 96.605469 164.871094 96.605469 164.863281 96.605469 C 164.859375 96.605469 164.851562 96.605469 164.847656 96.605469 C 164.839844 96.601562 164.828125 96.601562 164.820312 96.601562 C 164.8125 96.601562 164.808594 96.601562 164.808594 96.601562 C 164.792969 96.601562 164.785156 96.601562 164.769531 96.601562 C 164.769531 96.601562 164.765625 96.601562 164.757812 96.601562 C 164.75 96.601562 164.738281 96.601562 164.726562 96.601562 C 164.71875 96.601562 164.714844 96.601562 164.714844 96.601562 C 164.699219 96.601562 164.691406 96.601562 164.679688 96.601562 C 164.675781 96.601562 164.671875 96.601562 164.667969 96.601562 C 164.65625 96.601562 164.648438 96.601562 164.636719 96.597656 C 164.632812 96.597656 164.628906 96.597656 164.621094 96.597656 C 164.613281 96.597656 164.597656 96.597656 164.589844 96.597656 C 164.589844 96.597656 164.582031 96.597656 164.578125 96.597656 C 164.570312 96.597656 164.554688 96.597656 164.542969 96.597656 C 164.539062 96.597656 164.539062 96.597656 164.535156 96.597656 C 164.519531 96.589844 164.507812 96.589844 164.496094 96.589844 C 164.496094 96.589844 164.488281 96.589844 164.488281 96.589844 C 164.476562 96.589844 164.464844 96.589844 164.449219 96.589844 C 164.449219 96.589844 164.445312 96.589844 164.445312 96.589844 C 164.429688 96.589844 164.417969 96.589844 164.40625 96.589844 C 164.402344 96.589844 164.402344 96.589844 164.402344 96.589844 C 164.386719 96.589844 164.371094 96.585938 164.359375 96.585938 C 164.359375 96.585938 164.351562 96.585938 164.351562 96.585938 C 164.339844 96.585938 164.328125 96.585938 164.3125 96.585938 C 164.308594 96.585938 164.3125 96.585938 164.308594 96.585938 C 164.292969 96.585938 164.277344 96.585938 164.269531 96.585938 C 164.265625 96.585938 164.269531 96.585938 164.265625 96.585938 C 156.871094 96.273438 150.199219 93.101562 145.320312 88.148438 C 147.683594 87.824219 150.042969 87.445312 152.363281 86.957031 C 156.066406 89.574219 160.585938 91.121094 165.460938 91.121094 C 178.011719 91.121094 188.242188 80.878906 188.242188 68.332031 C 188.242188 63.148438 186.496094 58.351562 183.554688 54.515625 C 183.996094 52.15625 184.289062 49.78125 184.441406 47.40625 C 185.5625 48.421875 186.589844 49.519531 187.535156 50.695312 C 191.285156 55.382812 193.589844 61.285156 193.734375 67.707031 C 193.734375 67.722656 193.734375 67.734375 193.734375 67.75 C 193.734375 67.753906 193.734375 67.761719 193.734375 67.761719 C 193.734375 67.773438 193.734375 67.785156 193.734375 67.800781 C 193.734375 67.804688 193.734375 67.808594 193.734375 67.808594 C 193.734375 67.824219 193.734375 67.832031 193.734375 67.84375 C 193.734375 67.847656 193.734375 67.859375 193.734375 67.859375 C 193.734375 67.875 193.734375 67.882812 193.734375 67.894531 C 193.734375 67.898438 193.734375 67.902344 193.734375 67.90625 C 193.734375 67.917969 193.734375 67.925781 193.738281 67.9375 C 193.738281 67.945312 193.738281 67.953125 193.738281 67.957031 C 193.738281 67.964844 193.738281 67.976562 193.738281 67.984375 C 193.738281 67.992188 193.738281 68 193.738281 68.003906 C 193.738281 68.015625 193.738281 68.019531 193.738281 68.03125 C 193.738281 68.039062 193.738281 68.042969 193.738281 68.054688 C 193.738281 68.058594 193.738281 68.070312 193.738281 68.078125 C 193.738281 68.082031 193.738281 68.09375 193.738281 68.097656 C 193.738281 68.109375 193.738281 68.117188 193.738281 68.125 C 193.738281 68.132812 193.738281 68.136719 193.738281 68.148438 C 193.738281 68.15625 193.738281 68.167969 193.738281 68.171875 C 193.738281 68.183594 193.738281 68.1875 193.738281 68.191406 C 193.738281 68.203125 193.738281 68.210938 193.738281 68.222656 C 193.738281 68.226562 193.738281 68.234375 193.738281 68.242188 C 193.738281 68.25 193.738281 68.261719 193.738281 68.269531 C 193.738281 68.273438 193.738281 68.285156 193.738281 68.289062 C 193.738281 68.304688 193.738281 68.320312 193.738281 68.332031 C 193.738281 83.910156 181.03125 96.609375 165.460938 96.609375 " fill-opacity="1" fill-rule="nonzero"/><path fill="#ba9744" d="M 165.460938 91.121094 C 160.585938 91.121094 156.066406 89.574219 152.363281 86.957031 C 156.355469 86.121094 160.25 84.976562 163.882812 83.300781 L 167.449219 83.300781 L 167.449219 81.417969 C 168.285156 80.921875 169.097656 80.382812 169.890625 79.808594 C 170.203125 79.75 170.503906 79.683594 170.808594 79.605469 C 171.875 79.320312 172.808594 78.902344 173.625 78.347656 C 174.433594 77.78125 175.085938 77.085938 175.558594 76.246094 C 175.972656 75.519531 176.203125 74.675781 176.253906 73.722656 C 180.449219 68.332031 182.230469 61.40625 183.5 54.816406 C 183.519531 54.71875 183.535156 54.617188 183.554688 54.515625 C 186.496094 58.351562 188.242188 63.148438 188.242188 68.332031 C 188.242188 80.878906 178.011719 91.121094 165.460938 91.121094 " fill-opacity="1" fill-rule="nonzero"/><path fill="#b27510" d="M 167.449219 83.300781 L 163.882812 83.300781 C 165.101562 82.738281 166.292969 82.113281 167.449219 81.417969 L 167.449219 83.300781 M 169.890625 79.808594 C 171.972656 78.308594 173.90625 76.539062 175.671875 74.445312 C 175.875 74.207031 176.066406 73.964844 176.253906 73.722656 C 176.203125 74.675781 175.972656 75.519531 175.558594 76.246094 C 175.085938 77.085938 174.433594 77.78125 173.625 78.347656 C 172.808594 78.902344 171.875 79.320312 170.808594 79.605469 C 170.503906 79.683594 170.203125 79.75 169.890625 79.808594 " fill-opacity="1" fill-rule="nonzero"/><path fill="#f1a017" d="M 230.53125 56.519531 C 246.105469 56.519531 258.8125 43.816406 258.8125 28.246094 C 258.8125 12.675781 246.105469 -0.0273438 230.53125 -0.0273438 C 214.957031 -0.0273438 202.253906 12.675781 202.253906 28.246094 C 202.253906 43.816406 214.957031 56.519531 230.53125 56.519531 " fill-opacity="1" fill-rule="evenodd"/><path fill="#fcce5c" d="M 230.53125 51.035156 C 243.085938 51.035156 253.316406 40.796875 253.316406 28.246094 C 253.316406 15.703125 243.085938 5.464844 230.53125 5.464844 C 217.984375 5.464844 207.742188 15.703125 207.742188 28.246094 C 207.742188 40.796875 217.984375 51.035156 230.53125 51.035156 " fill-opacity="1" fill-rule="evenodd"/><path fill="#f1a017" d="M 228.558594 39.707031 C 227.417969 39.429688 226.230469 38.945312 225.011719 38.261719 L 225.011719 39.625 L 219.9375 39.625 L 219.9375 31.199219 L 225.011719 31.199219 C 225.292969 32.417969 225.882812 33.378906 226.785156 34.066406 C 227.683594 34.757812 228.691406 35.09375 229.804688 35.09375 C 230.574219 35.09375 231.136719 34.957031 231.5 34.660156 C 231.855469 34.363281 232.035156 34.050781 232.035156 33.714844 C 232.035156 33.148438 231.726562 32.71875 231.117188 32.402344 C 230.507812 32.089844 229.75 31.816406 228.839844 31.566406 C 227.941406 31.316406 226.957031 31.042969 225.882812 30.746094 C 224.824219 30.449219 223.839844 30.011719 222.9375 29.4375 C 222.03125 28.863281 221.265625 28.113281 220.648438 27.183594 C 220.03125 26.257812 219.71875 25.03125 219.71875 23.507812 C 219.71875 22.386719 219.960938 21.402344 220.445312 20.546875 C 220.921875 19.703125 221.574219 18.976562 222.386719 18.394531 C 223.203125 17.808594 224.144531 17.355469 225.203125 17.039062 C 226.269531 16.714844 227.386719 16.558594 228.558594 16.558594 L 228.558594 13.273438 L 232.519531 13.273438 L 232.519531 17.050781 C 233.160156 17.230469 233.730469 17.4375 234.242188 17.664062 C 234.746094 17.886719 235.171875 18.109375 235.511719 18.308594 L 235.511719 16.914062 L 240.640625 16.914062 L 240.640625 25.144531 L 235.511719 25.144531 C 235.429688 24.613281 235.242188 24.117188 234.953125 23.671875 C 234.660156 23.222656 234.304688 22.839844 233.894531 22.527344 C 233.488281 22.203125 233.03125 21.945312 232.519531 21.765625 C 232.019531 21.574219 231.507812 21.476562 231 21.476562 C 230.363281 21.476562 229.839844 21.597656 229.421875 21.835938 C 229 22.078125 228.800781 22.421875 228.800781 22.882812 C 228.800781 23.441406 229.109375 23.867188 229.746094 24.164062 C 230.375 24.453125 231.148438 24.726562 232.058594 24.980469 C 232.980469 25.238281 233.988281 25.515625 235.078125 25.820312 C 236.171875 26.128906 237.179688 26.558594 238.089844 27.140625 C 239.011719 27.707031 239.777344 28.472656 240.402344 29.421875 C 241.03125 30.390625 241.34375 31.632812 241.34375 33.1875 C 241.34375 34.332031 241.105469 35.320312 240.628906 36.160156 C 240.152344 36.996094 239.507812 37.703125 238.691406 38.261719 C 237.882812 38.816406 236.949219 39.238281 235.878906 39.511719 C 234.808594 39.796875 233.691406 39.96875 232.519531 40.011719 L 232.519531 43.214844 L 228.558594 43.214844 L 228.558594 39.707031 " fill-opacity="1" fill-rule="nonzero"/><path fill="#bdbcbd" d="M 230.488281 56.519531 C 230.476562 56.519531 230.472656 56.519531 230.46875 56.519531 C 230.472656 56.519531 230.480469 56.519531 230.488281 56.519531 M 230.4375 56.519531 C 230.433594 56.519531 230.421875 56.519531 230.417969 56.519531 C 230.421875 56.519531 230.433594 56.519531 230.4375 56.519531 M 230.394531 56.519531 C 230.386719 56.519531 230.378906 56.519531 230.375 56.519531 C 230.378906 56.519531 230.386719 56.519531 230.394531 56.519531 M 230.347656 56.519531 C 230.34375 56.519531 230.339844 56.519531 230.335938 56.519531 C 230.339844 56.519531 230.34375 56.519531 230.347656 56.519531 M 230.300781 56.519531 C 230.296875 56.519531 230.289062 56.519531 230.285156 56.519531 C 230.289062 56.519531 230.296875 56.519531 230.300781 56.519531 M 230.257812 56.519531 C 230.25 56.519531 230.246094 56.519531 230.242188 56.519531 C 230.246094 56.519531 230.25 56.519531 230.257812 56.519531 M 230.210938 56.519531 C 230.207031 56.519531 230.203125 56.519531 230.195312 56.519531 C 230.203125 56.519531 230.207031 56.519531 230.210938 56.519531 M 230.164062 56.519531 C 230.164062 56.519531 230.15625 56.519531 230.152344 56.519531 C 230.15625 56.519531 230.164062 56.519531 230.164062 56.519531 M 230.117188 56.519531 C 230.113281 56.519531 230.113281 56.519531 230.109375 56.519531 C 230.113281 56.519531 230.113281 56.519531 230.117188 56.519531 M 230.070312 56.519531 C 230.070312 56.519531 230.070312 56.519531 230.066406 56.519531 C 230.070312 56.519531 230.070312 56.519531 230.070312 56.519531 M 230.027344 56.519531 C 230.027344 56.519531 230.019531 56.519531 230.019531 56.519531 C 230.019531 56.519531 230.027344 56.519531 230.027344 56.519531 M 229.980469 56.515625 C 229.976562 56.515625 229.976562 56.515625 229.976562 56.515625 C 229.976562 56.515625 229.976562 56.515625 229.980469 56.515625 M 229.933594 56.515625 C 229.933594 56.515625 229.933594 56.515625 229.925781 56.515625 C 229.933594 56.515625 229.933594 56.515625 229.933594 56.515625 M 258.8125 28.203125 C 258.8125 28.191406 258.8125 28.1875 258.8125 28.183594 C 258.8125 28.1875 258.8125 28.191406 258.8125 28.203125 M 258.8125 28.152344 C 258.8125 28.148438 258.8125 28.140625 258.8125 28.132812 C 258.8125 28.140625 258.8125 28.148438 258.8125 28.152344 M 258.8125 28.105469 C 258.8125 28.101562 258.8125 28.09375 258.8125 28.085938 C 258.8125 28.09375 258.8125 28.101562 258.8125 28.105469 M 258.8125 28.054688 C 258.8125 28.050781 258.8125 28.046875 258.8125 28.039062 C 258.8125 28.046875 258.8125 28.050781 258.8125 28.054688 M 258.8125 28.011719 C 258.8125 28.007812 258.8125 28 258.8125 27.996094 C 258.8125 28 258.8125 28.007812 258.8125 28.011719 M 258.8125 27.960938 C 258.8125 27.957031 258.8125 27.953125 258.8125 27.949219 C 258.8125 27.953125 258.8125 27.957031 258.8125 27.960938 M 258.8125 27.914062 C 258.8125 27.910156 258.8125 27.902344 258.8125 27.902344 C 258.8125 27.902344 258.8125 27.910156 258.8125 27.914062 M 258.8125 27.863281 C 258.8125 27.859375 258.8125 27.859375 258.8125 27.855469 C 258.8125 27.859375 258.8125 27.859375 258.8125 27.863281 M 258.8125 27.816406 C 258.8125 27.816406 258.8125 27.808594 258.8125 27.804688 C 258.8125 27.808594 258.8125 27.808594 258.8125 27.816406 M 258.808594 27.765625 C 258.808594 27.761719 258.808594 27.761719 258.808594 27.761719 C 258.808594 27.761719 258.808594 27.761719 258.808594 27.765625 M 249.984375 7.753906 C 249.832031 7.609375 249.675781 7.460938 249.511719 7.316406 C 249.675781 7.460938 249.832031 7.609375 249.984375 7.753906 " fill-opacity="1" fill-rule="nonzero"/><path fill="#b27510" d="M 230.53125 56.519531 C 230.515625 56.519531 230.5 56.519531 230.488281 56.519531 C 230.480469 56.519531 230.472656 56.519531 230.46875 56.519531 C 230.457031 56.519531 230.445312 56.519531 230.4375 56.519531 C 230.433594 56.519531 230.421875 56.519531 230.417969 56.519531 C 230.40625 56.519531 230.402344 56.519531 230.394531 56.519531 C 230.386719 56.519531 230.378906 56.519531 230.375 56.519531 C 230.363281 56.519531 230.355469 56.519531 230.347656 56.519531 C 230.34375 56.519531 230.339844 56.519531 230.335938 56.519531 C 230.324219 56.519531 230.316406 56.519531 230.300781 56.519531 C 230.296875 56.519531 230.289062 56.519531 230.285156 56.519531 C 230.277344 56.519531 230.265625 56.519531 230.257812 56.519531 C 230.25 56.519531 230.246094 56.519531 230.242188 56.519531 C 230.230469 56.519531 230.222656 56.519531 230.210938 56.519531 C 230.207031 56.519531 230.203125 56.519531 230.195312 56.519531 C 230.1875 56.519531 230.171875 56.519531 230.164062 56.519531 C 230.164062 56.519531 230.15625 56.519531 230.152344 56.519531 C 230.144531 56.519531 230.128906 56.519531 230.117188 56.519531 C 230.113281 56.519531 230.113281 56.519531 230.109375 56.519531 C 230.09375 56.519531 230.085938 56.519531 230.070312 56.519531 C 230.070312 56.519531 230.070312 56.519531 230.066406 56.519531 C 230.050781 56.519531 230.039062 56.519531 230.027344 56.519531 C 230.027344 56.519531 230.019531 56.519531 230.019531 56.519531 C 230.007812 56.519531 229.996094 56.515625 229.980469 56.515625 C 229.976562 56.515625 229.976562 56.515625 229.976562 56.515625 C 229.960938 56.515625 229.945312 56.515625 229.933594 56.515625 C 229.933594 56.515625 229.933594 56.515625 229.925781 56.515625 C 229.917969 56.515625 229.902344 56.515625 229.886719 56.515625 C 222.273438 56.34375 215.390625 53.136719 210.390625 48.058594 C 212.753906 47.734375 215.109375 47.355469 217.425781 46.871094 C 221.136719 49.492188 225.664062 51.035156 230.53125 51.035156 C 243.085938 51.035156 253.316406 40.796875 253.316406 28.246094 C 253.316406 23.058594 251.566406 18.265625 248.628906 14.433594 C 249.070312 12.070312 249.359375 9.699219 249.511719 7.316406 C 249.675781 7.460938 249.832031 7.609375 249.984375 7.753906 C 255.300781 12.8125 258.675781 19.90625 258.808594 27.761719 C 258.808594 27.761719 258.808594 27.761719 258.808594 27.765625 C 258.808594 27.78125 258.808594 27.796875 258.8125 27.804688 C 258.8125 27.808594 258.8125 27.816406 258.8125 27.816406 C 258.8125 27.824219 258.8125 27.839844 258.8125 27.855469 C 258.8125 27.859375 258.8125 27.859375 258.8125 27.863281 C 258.8125 27.875 258.8125 27.890625 258.8125 27.902344 C 258.8125 27.902344 258.8125 27.910156 258.8125 27.914062 C 258.8125 27.921875 258.8125 27.9375 258.8125 27.949219 C 258.8125 27.953125 258.8125 27.957031 258.8125 27.960938 C 258.8125 27.972656 258.8125 27.980469 258.8125 27.996094 C 258.8125 28 258.8125 28.007812 258.8125 28.011719 C 258.8125 28.019531 258.8125 28.03125 258.8125 28.039062 C 258.8125 28.046875 258.8125 28.050781 258.8125 28.054688 C 258.8125 28.066406 258.8125 28.074219 258.8125 28.085938 C 258.8125 28.09375 258.8125 28.101562 258.8125 28.105469 C 258.8125 28.113281 258.8125 28.125 258.8125 28.132812 C 258.8125 28.140625 258.8125 28.148438 258.8125 28.152344 C 258.8125 28.164062 258.8125 28.171875 258.8125 28.183594 C 258.8125 28.1875 258.8125 28.191406 258.8125 28.203125 C 258.8125 28.21875 258.8125 28.230469 258.8125 28.246094 C 258.8125 43.816406 246.105469 56.519531 230.53125 56.519531 " fill-opacity="1" fill-rule="nonzero"/><path fill="#ba9744" d="M 230.53125 51.035156 C 225.664062 51.035156 221.136719 49.492188 217.425781 46.871094 C 221.425781 46.03125 225.320312 44.890625 228.957031 43.214844 L 232.519531 43.214844 L 232.519531 41.335938 C 233.355469 40.835938 234.167969 40.300781 234.960938 39.726562 C 235.269531 39.664062 235.578125 39.589844 235.878906 39.511719 C 236.949219 39.238281 237.882812 38.816406 238.691406 38.261719 C 239.507812 37.703125 240.152344 36.996094 240.628906 36.160156 C 241.042969 35.433594 241.277344 34.589844 241.332031 33.632812 C 245.523438 28.246094 247.304688 21.320312 248.578125 14.730469 C 248.589844 14.632812 248.609375 14.53125 248.628906 14.433594 C 251.566406 18.265625 253.316406 23.058594 253.316406 28.246094 C 253.316406 40.796875 243.085938 51.035156 230.53125 51.035156 " fill-opacity="1" fill-rule="nonzero"/><path fill="#b27510" d="M 232.519531 43.214844 L 228.957031 43.214844 C 230.171875 42.648438 231.363281 42.027344 232.519531 41.335938 L 232.519531 43.214844 M 234.960938 39.726562 C 237.039062 38.222656 238.980469 36.453125 240.746094 34.355469 C 240.949219 34.121094 241.140625 33.878906 241.332031 33.632812 C 241.277344 34.589844 241.042969 35.433594 240.628906 36.160156 C 240.152344 36.996094 239.507812 37.703125 238.691406 38.261719 C 237.882812 38.816406 236.949219 39.238281 235.878906 39.511719 C 235.578125 39.589844 235.269531 39.664062 234.960938 39.726562 " fill-opacity="1" fill-rule="nonzero"/></svg>