<svg xmlns="http://www.w3.org/2000/svg" xmlns:xlink="http://www.w3.org/1999/xlink" width="500" zoomAndPan="magnify" viewBox="0 0 375 374.999991" height="500" preserveAspectRatio="xMidYMid meet" version="1.0"><defs><clipPath id="c7ed1f5a7c"><path d="M 10 28 L 365 28 L 365 350.109375 L 10 350.109375 Z M 10 28 " clip-rule="nonzero"/></clipPath></defs><g clip-path="url(#c7ed1f5a7c)"><path fill="#f4abba" d="M 346.398438 147.445312 C 350.195312 143.808594 353.589844 139.652344 356.394531 134.898438 C 372.941406 106.914062 359.046875 33.992188 350.585938 29.011719 C 343.765625 24.980469 296.332031 39.304688 269.671875 59.71875 C 245.160156 45.042969 217.242188 36.375 187.5 36.375 C 157.855469 36.375 130.035156 44.992188 105.574219 59.582031 C 78.875 39.246094 31.664062 24.992188 24.84375 29.011719 C 16.394531 33.992188 2.511719 106.925781 19.035156 134.898438 C 21.765625 139.515625 25.070312 143.5625 28.742188 147.140625 C 17.40625 172.164062 10.871094 199.515625 10.871094 227.351562 C 10.871094 325.285156 89.480469 350.109375 187.5 350.109375 C 285.519531 350.109375 364.128906 325.285156 364.128906 227.351562 C 364.128906 199.625 357.652344 172.386719 346.398438 147.445312 Z M 346.398438 147.445312 " fill-opacity="1" fill-rule="nonzero"/></g><path fill="#ea596e" d="M 83.464844 75.25 C 62.210938 62.828125 40.269531 54.855469 36.363281 57.160156 C 30.773438 60.464844 25.738281 106.160156 32.910156 138.191406 C 45.402344 113.847656 62.742188 92.289062 83.464844 75.25 Z M 342.078125 138.179688 C 349.273438 106.152344 344.226562 60.453125 338.636719 57.148438 C 334.730469 54.84375 312.777344 62.816406 291.523438 75.238281 C 312.269531 92.289062 329.597656 113.847656 342.078125 138.179688 Z M 285.625 243.488281 C 285.625 287.480469 255.238281 335.402344 187.5 335.402344 C 119.753906 335.402344 89.375 287.480469 89.375 243.488281 C 89.375 199.496094 119.753906 188.339844 187.5 188.339844 C 255.238281 188.339844 285.625 199.496094 285.625 243.488281 Z M 285.625 243.488281 " fill-opacity="1" fill-rule="nonzero"/><path fill="#662113" d="M 158.0625 257.949219 C 158.0625 276.15625 154.726562 281.480469 143.34375 281.480469 C 131.960938 281.480469 128.625 276.15625 128.625 257.949219 C 128.625 239.753906 131.960938 234.429688 143.34375 234.429688 C 154.726562 234.429688 158.0625 239.742188 158.0625 257.949219 Z M 246.375 257.949219 C 246.375 276.15625 243.039062 281.480469 231.65625 281.480469 C 220.273438 281.480469 216.9375 276.15625 216.9375 257.949219 C 216.9375 239.753906 220.273438 234.429688 231.65625 234.429688 C 243.039062 234.429688 246.375 239.742188 246.375 257.949219 Z M 246.375 257.949219 " fill-opacity="1" fill-rule="nonzero"/><path fill="#292f33" d="M 99.1875 183.4375 C 99.1875 184.078125 99.15625 184.71875 99.089844 185.359375 C 99.027344 186 98.933594 186.632812 98.808594 187.261719 C 98.683594 187.894531 98.527344 188.515625 98.339844 189.128906 C 98.152344 189.746094 97.9375 190.347656 97.691406 190.941406 C 97.445312 191.535156 97.171875 192.113281 96.867188 192.679688 C 96.566406 193.246094 96.234375 193.796875 95.878906 194.332031 C 95.519531 194.867188 95.140625 195.378906 94.730469 195.878906 C 94.324219 196.375 93.890625 196.847656 93.4375 197.304688 C 92.984375 197.757812 92.507812 198.1875 92.011719 198.59375 C 91.515625 199.003906 91 199.382812 90.464844 199.742188 C 89.929688 200.097656 89.378906 200.429688 88.8125 200.730469 C 88.246094 201.035156 87.664062 201.308594 87.070312 201.554688 C 86.476562 201.800781 85.871094 202.015625 85.257812 202.203125 C 84.640625 202.386719 84.019531 202.542969 83.390625 202.667969 C 82.757812 202.792969 82.125 202.890625 81.484375 202.953125 C 80.84375 203.015625 80.203125 203.046875 79.558594 203.046875 C 78.917969 203.046875 78.277344 203.015625 77.636719 202.953125 C 76.996094 202.890625 76.363281 202.792969 75.730469 202.667969 C 75.101562 202.542969 74.480469 202.386719 73.863281 202.203125 C 73.25 202.015625 72.644531 201.800781 72.050781 201.554688 C 71.457031 201.308594 70.875 201.035156 70.308594 200.730469 C 69.742188 200.429688 69.191406 200.097656 68.65625 199.742188 C 68.121094 199.382812 67.605469 199.003906 67.109375 198.59375 C 66.613281 198.1875 66.136719 197.757812 65.683594 197.304688 C 65.230469 196.847656 64.796875 196.375 64.390625 195.878906 C 63.980469 195.378906 63.601562 194.867188 63.242188 194.332031 C 62.886719 193.796875 62.554688 193.246094 62.253906 192.679688 C 61.949219 192.113281 61.675781 191.535156 61.429688 190.941406 C 61.183594 190.347656 60.964844 189.746094 60.78125 189.128906 C 60.59375 188.515625 60.4375 187.894531 60.3125 187.261719 C 60.1875 186.632812 60.09375 186 60.03125 185.359375 C 59.964844 184.71875 59.933594 184.078125 59.933594 183.4375 C 59.933594 182.796875 59.964844 182.15625 60.03125 181.515625 C 60.09375 180.875 60.1875 180.242188 60.3125 179.613281 C 60.4375 178.980469 60.59375 178.359375 60.78125 177.746094 C 60.964844 177.132812 61.183594 176.527344 61.429688 175.933594 C 61.675781 175.339844 61.949219 174.761719 62.253906 174.195312 C 62.554688 173.628906 62.886719 173.078125 63.242188 172.542969 C 63.601562 172.011719 63.980469 171.496094 64.390625 171 C 64.796875 170.5 65.230469 170.027344 65.683594 169.574219 C 66.136719 169.117188 66.613281 168.6875 67.109375 168.28125 C 67.605469 167.871094 68.121094 167.492188 68.65625 167.132812 C 69.191406 166.777344 69.742188 166.449219 70.308594 166.144531 C 70.875 165.84375 71.457031 165.566406 72.050781 165.320312 C 72.644531 165.074219 73.25 164.859375 73.863281 164.671875 C 74.480469 164.488281 75.101562 164.332031 75.730469 164.207031 C 76.363281 164.082031 76.996094 163.988281 77.636719 163.921875 C 78.277344 163.859375 78.917969 163.828125 79.558594 163.828125 C 80.203125 163.828125 80.84375 163.859375 81.484375 163.921875 C 82.125 163.988281 82.757812 164.082031 83.390625 164.207031 C 84.019531 164.332031 84.640625 164.488281 85.257812 164.671875 C 85.871094 164.859375 86.476562 165.074219 87.070312 165.320312 C 87.664062 165.566406 88.246094 165.84375 88.8125 166.144531 C 89.378906 166.449219 89.929688 166.777344 90.464844 167.132812 C 91 167.492188 91.515625 167.871094 92.011719 168.28125 C 92.507812 168.6875 92.984375 169.117188 93.4375 169.574219 C 93.890625 170.027344 94.324219 170.5 94.730469 171 C 95.140625 171.496094 95.519531 172.011719 95.878906 172.542969 C 96.234375 173.078125 96.566406 173.628906 96.867188 174.195312 C 97.171875 174.761719 97.445312 175.339844 97.691406 175.933594 C 97.9375 176.527344 98.152344 177.132812 98.339844 177.746094 C 98.527344 178.359375 98.683594 178.980469 98.808594 179.613281 C 98.933594 180.242188 99.027344 180.875 99.089844 181.515625 C 99.15625 182.15625 99.1875 182.796875 99.1875 183.4375 Z M 99.1875 183.4375 " fill-opacity="1" fill-rule="nonzero"/><path fill="#292f33" d="M 315.066406 183.4375 C 315.066406 184.078125 315.035156 184.71875 314.96875 185.359375 C 314.90625 186 314.8125 186.632812 314.6875 187.261719 C 314.5625 187.894531 314.40625 188.515625 314.21875 189.128906 C 314.035156 189.746094 313.816406 190.347656 313.570312 190.941406 C 313.324219 191.535156 313.050781 192.113281 312.746094 192.679688 C 312.445312 193.246094 312.113281 193.796875 311.757812 194.332031 C 311.398438 194.867188 311.019531 195.378906 310.609375 195.878906 C 310.203125 196.375 309.769531 196.847656 309.316406 197.304688 C 308.863281 197.757812 308.386719 198.1875 307.890625 198.59375 C 307.394531 199.003906 306.878906 199.382812 306.34375 199.742188 C 305.808594 200.097656 305.257812 200.429688 304.691406 200.730469 C 304.125 201.035156 303.542969 201.308594 302.949219 201.554688 C 302.355469 201.800781 301.75 202.015625 301.136719 202.203125 C 300.519531 202.386719 299.898438 202.542969 299.269531 202.667969 C 298.636719 202.792969 298.003906 202.890625 297.363281 202.953125 C 296.722656 203.015625 296.082031 203.046875 295.441406 203.046875 C 294.796875 203.046875 294.15625 203.015625 293.515625 202.953125 C 292.875 202.890625 292.242188 202.792969 291.609375 202.667969 C 290.980469 202.542969 290.359375 202.386719 289.742188 202.203125 C 289.128906 202.015625 288.523438 201.800781 287.929688 201.554688 C 287.335938 201.308594 286.753906 201.035156 286.1875 200.730469 C 285.621094 200.429688 285.070312 200.097656 284.535156 199.742188 C 284 199.382812 283.484375 199.003906 282.988281 198.59375 C 282.492188 198.1875 282.015625 197.757812 281.5625 197.304688 C 281.109375 196.847656 280.675781 196.375 280.269531 195.878906 C 279.859375 195.378906 279.480469 194.867188 279.121094 194.332031 C 278.765625 193.796875 278.433594 193.246094 278.132812 192.679688 C 277.828125 192.113281 277.554688 191.535156 277.308594 190.941406 C 277.0625 190.347656 276.847656 189.746094 276.660156 189.128906 C 276.472656 188.515625 276.316406 187.894531 276.191406 187.261719 C 276.066406 186.632812 275.972656 186 275.910156 185.359375 C 275.84375 184.71875 275.8125 184.078125 275.8125 183.4375 C 275.8125 182.796875 275.84375 182.15625 275.910156 181.515625 C 275.972656 180.875 276.066406 180.242188 276.191406 179.613281 C 276.316406 178.980469 276.472656 178.359375 276.660156 177.746094 C 276.847656 177.132812 277.0625 176.527344 277.308594 175.933594 C 277.554688 175.339844 277.828125 174.761719 278.132812 174.195312 C 278.433594 173.628906 278.765625 173.078125 279.121094 172.542969 C 279.480469 172.011719 279.859375 171.496094 280.269531 171 C 280.675781 170.5 281.109375 170.027344 281.5625 169.574219 C 282.015625 169.117188 282.492188 168.6875 282.988281 168.28125 C 283.484375 167.871094 284 167.492188 284.535156 167.132812 C 285.070312 166.777344 285.621094 166.449219 286.1875 166.144531 C 286.753906 165.84375 287.335938 165.566406 287.929688 165.320312 C 288.523438 165.074219 289.128906 164.859375 289.742188 164.671875 C 290.359375 164.488281 290.980469 164.332031 291.609375 164.207031 C 292.242188 164.082031 292.875 163.988281 293.515625 163.921875 C 294.15625 163.859375 294.796875 163.828125 295.441406 163.828125 C 296.082031 163.828125 296.722656 163.859375 297.363281 163.921875 C 298.003906 163.988281 298.636719 164.082031 299.269531 164.207031 C 299.898438 164.332031 300.519531 164.488281 301.136719 164.671875 C 301.75 164.859375 302.355469 165.074219 302.949219 165.320312 C 303.542969 165.566406 304.125 165.84375 304.691406 166.144531 C 305.257812 166.449219 305.808594 166.777344 306.34375 167.132812 C 306.878906 167.492188 307.394531 167.871094 307.890625 168.28125 C 308.386719 168.6875 308.863281 169.117188 309.316406 169.574219 C 309.769531 170.027344 310.203125 170.5 310.609375 171 C 311.019531 171.496094 311.398438 172.011719 311.757812 172.542969 C 312.113281 173.078125 312.445312 173.628906 312.746094 174.195312 C 313.050781 174.761719 313.324219 175.339844 313.570312 175.933594 C 313.816406 176.527344 314.035156 177.132812 314.21875 177.746094 C 314.40625 178.359375 314.5625 178.980469 314.6875 179.613281 C 314.8125 180.242188 314.90625 180.875 314.96875 181.515625 C 315.035156 182.15625 315.066406 182.796875 315.066406 183.4375 Z M 315.066406 183.4375 " fill-opacity="1" fill-rule="nonzero"/></svg>